<?xml version="1.0" encoding="UTF-8" standalone="no"?>
<!-- Created with Inkscape (http://www.inkscape.org/) -->

<svg
   xmlns:dc="http://purl.org/dc/elements/1.1/"
   xmlns:cc="http://creativecommons.org/ns#"
   xmlns:rdf="http://www.w3.org/1999/02/22-rdf-syntax-ns#"
   xmlns:svg="http://www.w3.org/2000/svg"
   xmlns="http://www.w3.org/2000/svg"
   xmlns:sodipodi="http://sodipodi.sourceforge.net/DTD/sodipodi-0.dtd"
   xmlns:inkscape="http://www.inkscape.org/namespaces/inkscape"
   id="svg4222"
   version="1.1"
   inkscape:version="0.91 r13725"
   width="800"
   height="800"
   viewBox="0 0 800 800"
   sodipodi:docname="pray-icon.svg">
  <metadata
     id="metadata4228">
    <rdf:RDF>
      <cc:Work
         rdf:about="">
        <dc:format>image/svg+xml</dc:format>
        <dc:type
           rdf:resource="http://purl.org/dc/dcmitype/StillImage" />
        <dc:title></dc:title>
      </cc:Work>
    </rdf:RDF>
  </metadata>
  <defs
     id="defs4226" />
  <sodipodi:namedview
     pagecolor="#ffffff"
     bordercolor="#666666"
     borderopacity="1"
     objecttolerance="10"
     gridtolerance="10"
     guidetolerance="10"
     inkscape:pageopacity="0"
     inkscape:pageshadow="2"
     inkscape:window-width="1366"
     inkscape:window-height="706"
     id="namedview4224"
     showgrid="false"
     inkscape:zoom="0.26442577"
     inkscape:cx="418.75"
     inkscape:cy="446.25"
     inkscape:window-x="-8"
     inkscape:window-y="-8"
     inkscape:window-maximized="1"
     inkscape:current-layer="svg4222" />
  <path
     style="fill:#333333"
     d="m 186.0288,774.67551 c -14.30643,-2.71435 -24.77791,-7.30659 -35.044,-15.36845 -10.32579,-8.10857 -14.7771,-16.49379 -14.66306,-27.62184 0.14235,-13.94973 8.7243,-25.7388 24.78833,-34.05397 17.92952,-9.28079 16.29881,-9.14106 115.75211,-9.91803 86.98512,-0.67957 89.72307,-0.77975 83.80009,-3.06648 -5.54447,-2.14057 -13.31857,-2.36174 -82.2701,-2.34051 -58.79855,0.0181 -79.1025,0.46564 -89.11972,1.96429 -43.10953,6.44961 -68.36101,33.26864 -57.5886,61.16365 1.05366,2.72847 0.49255,3.03938 -5.48478,3.03938 -21.91583,0 -46.266556,-7.22226 -59.567678,-17.66745 -31.453349,-24.69982 -16.085143,-61.55021 30.375802,-72.83617 9.609296,-2.33421 18.067886,-2.56029 105.196906,-2.8117 52.11103,-0.15036 94.74729,-0.40513 94.74729,-0.56615 0,-0.16102 -5.10717,-2.51846 -11.34945,-5.23875 -20.67313,-9.00921 -35.68348,-24.69394 -40.14811,-41.9521 -1.41244,-5.45979 -2.06295,-57.35821 -2.04045,-162.77524 0.0367,-168.68042 -0.14694,-165.65152 10.88031,-180.07505 12.29338,-16.07986 36.94701,-28.67121 62.62002,-31.98197 17.73008,-2.28644 151.864,-1.90151 167.78783,0.48151 17.11982,2.56204 30.86651,7.72153 43.82646,16.44943 22.42262,15.10042 26.68137,25.37118 26.7971,64.6273 l 0.0842,28.42137 16.41087,7.87361 c 9.02613,4.33049 17.10895,7.36987 17.96212,6.75416 0.853,-0.6157 20.20247,-27.25805 42.99871,-59.20522 45.48412,-63.74223 47.94747,-66.34245 66.54663,-70.24215 12.10021,-2.53705 17.30213,-2.54266 29.27851,-0.0314 18.58156,3.89597 31.66778,15.35057 34.37222,30.08644 1.34739,7.34214 -0.32311,8.98595 -5.04733,4.96688 -1.37387,-1.16874 -5.99937,-3.43774 -10.27894,-5.04223 -11.06338,-4.14788 -35.11195,-4.14741 -46.17671,9e-4 -14.89372,5.58391 -20.39533,11.84837 -62.05093,70.65633 -22.10273,31.20361 -40.70464,56.73391 -41.33771,56.73391 -1.32749,0 -32.07553,-14.83059 -107.64234,-51.91899 -41.98239,-20.60506 -46.8462,-22.31744 -63.39098,-22.31744 -19.75431,0 -35.22905,6.34847 -45.47738,18.657 -4.59059,5.51337 -5.2212,7.66622 -5.201,17.75614 0.0261,13.32948 3.59662,19.50507 15.67097,27.10877 4.04875,2.54969 42.40835,21.65626 85.24344,42.45906 l 77.88184,37.8233 -0.44311,78.34825 -0.4431,78.34824 -5.36953,8.78041 c -2.9533,4.82922 -5.70717,9.38828 -6.11966,10.13123 -0.41251,0.74297 27.35101,11.07683 61.69674,22.96414 55.89516,19.34573 63.6143,22.41447 73.57549,29.24939 7.39712,5.07555 13.20929,10.73751 17.33336,16.88539 5.71022,8.51243 6.20446,10.32554 6.20446,22.75765 0,13.07162 -0.23663,13.82093 -7.31981,23.17838 -13.33847,17.62117 -25.90002,25.00102 -50.14482,29.4596 -16.57876,3.04885 -442.00697,2.9608 -458.11202,-0.0948 z M 602.78108,471.10502 c -3.84335,-1.01456 -19.34074,-7.9086 -34.43864,-15.32009 -15.09775,-7.41149 -59.4763,-29.10105 -98.6188,-48.199 -40.70112,-19.85838 -74.0137,-37.0706 -77.81496,-40.20605 -23.15548,-19.0997 -5.36203,-49.04021 30.94227,-52.06584 13.74746,-1.14571 22.43594,1.25745 45.33702,12.53985 85.19355,41.97122 131.72766,64.05308 132.96241,63.09495 0.79469,-0.61663 19.72905,-26.65187 42.07667,-57.85609 22.34746,-31.20421 42.33198,-58.7159 44.41009,-61.13709 4.26825,-4.97289 17.26171,-10.85048 27.89408,-12.61788 17.99273,-2.99091 39.26739,4.06391 48.90945,16.21861 4.7461,5.98312 5.7736,8.79165 5.68314,15.53456 -0.10714,8.02029 -1.49372,10.18481 -54.14351,84.553 -29.71811,41.97711 -57.03009,79.21769 -60.69329,82.75685 -3.66305,3.53916 -10.31017,7.94505 -14.77128,9.79087 -10.11776,4.18643 -27.75371,5.54802 -37.73465,2.91335 z M 370.33999,208.75074 c -42.11816,-6.52475 -77.38854,-26.50949 -95.67729,-54.21222 -9.00747,-13.64383 -12.63562,-25.69612 -12.53245,-41.63135 0.17234,-26.636694 13.23959,-48.92557 39.5798,-67.510865 17.30962,-12.213563 30.54508,-18.221004 53.27918,-24.182987 14.68387,-3.85084 17.28972,-4.100582 43.36483,-4.156124 25.53955,-0.0544 29.07999,0.250485 44.58994,3.839723 43.1438,9.984181 75.53036,33.712633 89.63031,65.669021 3.76943,8.54305 4.44672,12.884106 4.32091,27.692062 -0.12704,14.98835 -0.85929,19.0779 -4.99713,27.91716 -7.74012,16.53438 -17.49621,27.53937 -35.77502,40.35473 -13.6305,9.55635 -19.57584,12.61145 -34.63149,17.79578 -9.99671,3.44238 -24.37262,7.21689 -31.94637,8.38783 -16.42692,2.53967 -42.94391,2.55633 -59.20522,0.0373 z"
     id="path4232"
     inkscape:connector-curvature="0" />
</svg>
